<?xml version="1.0" encoding="UTF-8"?>
<svg id="_Слой_2" data-name="Слой 2" xmlns="http://www.w3.org/2000/svg" viewBox="0 0 24.42 32.41">
  <defs>
    <style>
      .cls-1 {
        fill: #c7c7c9;
        fill-rule: evenodd;
      }
    </style>
  </defs>
  <g id="_Слой_1-2" data-name="Слой 1">
    <path class="cls-1" d="M14.65,2.44c0,1.12-.75,2.06-1.78,2.35,5.21,.34,9.32,4.68,9.32,9.97v7.66c0,1.79,.07,3.24,1.61,4,.46,.23,.7,.75,.58,1.25-.12,.5-.57,.85-1.08,.85H13.68c.46,.41,.75,1,.75,1.66,0,1.23-.99,2.22-2.22,2.22s-2.22-.99-2.22-2.22c0-.66,.29-1.26,.75-1.66H1.11c-.51,0-.96-.35-1.08-.85-.12-.5,.12-1.02,.58-1.25,1.53-.77,1.61-2.21,1.61-4v-7.66c0-5.29,4.12-9.63,9.32-9.97-1.03-.29-1.78-1.23-1.78-2.35,0-1.35,1.09-2.44,2.44-2.44s2.44,1.09,2.44,2.44Zm-2.44,4.55c-4.29,0-7.77,3.48-7.77,7.77v7.77c0,.99,0,2.46-.67,3.77H20.65c-.67-1.31-.67-2.78-.67-3.77v-7.77c0-4.29-3.48-7.77-7.77-7.77Z"/>
  </g>
</svg>