<?xml version="1.0" encoding="UTF-8"?>
<svg id="_Слой_2" data-name="Слой 2" xmlns="http://www.w3.org/2000/svg" viewBox="0 0 32.79 28.42">
  <defs>
    <style>
      .cls-1 {
        fill: #f9cd0f;
        fill-rule: evenodd;
      }
    </style>
  </defs>
  <g id="_Слой_1-2" data-name="Слой 1">
    <path class="cls-1" d="M27.32,2.19H5.46c-1.81,0-3.28,1.47-3.28,3.28v10.93c0,1.81,1.47,3.28,3.28,3.28h10.93c.29,0,.57,.12,.77,.32l4.69,4.69v-3.92c0-.6,.49-1.09,1.09-1.09h4.37c1.81,0,3.28-1.47,3.28-3.28V5.46c0-1.81-1.47-3.28-3.28-3.28ZM5.46,0H27.32c3.02,0,5.46,2.45,5.46,5.46v10.93c0,3.02-2.45,5.46-5.46,5.46h-3.28v5.46c0,.44-.27,.84-.67,1.01-.41,.17-.88,.08-1.19-.24l-6.24-6.24H5.46c-3.02,0-5.46-2.45-5.46-5.46V5.46C0,2.45,2.45,0,5.46,0Z"/>
  </g>
</svg>