<?xml version="1.0" encoding="UTF-8"?>
<svg id="_Слой_2" data-name="Слой 2" xmlns="http://www.w3.org/2000/svg" viewBox="0 0 49.46 51.4">
  <defs>
    <style>
      .cls-1 {
        fill: #8bc53f;
      }

      .cls-2 {
        fill: #1b763b;
      }

      .cls-3 {
        fill: #f6921e;
      }
    </style>
  </defs>
  <g id="_Слой_1-2" data-name="Слой 1">
    <g>
      <path class="cls-2" d="M8.62,35.33c8.83,8.48,21.81,11.45,25.14,11.99C31.48,31.57,16.31,20.48,.17,23.78c-2.17,18.76,16.55,32.78,33.82,25.79,0-.01,0-.03,0-.04-18.32-2.24-25.37-14.21-25.37-14.21Z"/>
      <path class="cls-1" d="M49.28,23.78c-1.84-.38-3.74-.57-5.69-.57-6.55,0-12.58,2.24-17.36,5.99,2.42,2.23,4.48,4.85,6.07,7.76,3.77-2.14,9.61-5.74,11.67-8.68-2.58,4.69-5.63,6.84-10.79,10.41,1.44,3.09,2.38,6.47,2.7,10.03,8.05-4.08,13.58-12.42,13.58-22.07,0-.97-.06-1.93-.17-2.87Z"/>
    </g>
    <path class="cls-3" d="M19.01,15.95l1.79,10.49c1.3,.58,2.55,1.26,3.74,2.04l-3.32-13c2.5-1.16,4.02-4.88,3.19-8.8C23.49,2.34,20.01-.61,16.65,.11c-3.36,.71-5.34,4.82-4.42,9.16,.83,3.92,3.74,6.7,6.77,6.68Z"/>
    <path class="cls-3" d="M29.63,16.17l-3.09,12.1c1.17-.74,2.39-1.39,3.64-1.94l1.66-9.69c2.75-.04,4.82-3,5.65-6.92,.27-1.28,.9-4.75,.45-6.93-.04-.17-.19-.3-.36-.3-.18,0-.33,.12-.37,.3l-1.7,8.01c-.04,.17-.14,.33-.29,.42-.15,.1-.33,.13-.51,.09h-.04c-.36-.09-.59-.44-.52-.81l1.7-7.97c.08-.39-.17-.78-.56-.87h-.01c-.19-.04-.39,0-.55,.1-.16,.11-.28,.27-.32,.46l-1.7,7.97c-.04,.17-.14,.33-.29,.42-.15,.1-.33,.13-.51,.09h-.04c-.36-.09-.59-.44-.52-.81l1.69-7.97c.04-.19,0-.39-.1-.55-.11-.16-.27-.28-.46-.32-.4-.09-.8,.17-.88,.57l-1.69,7.96c-.04,.17-.14,.33-.29,.42-.15,.1-.33,.13-.51,.09h-.04c-.36-.09-.59-.44-.52-.81l1.71-8.05c.04-.17-.05-.34-.2-.41-.15-.08-.34-.04-.45,.09-1.43,1.68-2.32,5.08-2.63,6.52-.83,3.92-.15,7.46,2.63,8.68Z"/>
  </g>
</svg>