<?xml version="1.0" encoding="UTF-8"?>
<svg id="_Слой_2" data-name="Слой 2" xmlns="http://www.w3.org/2000/svg" viewBox="0 0 28.69 28.69">
  <defs>
    <style>
      .cls-1 {
        fill: #ff5252;
        fill-rule: evenodd;
      }
    </style>
  </defs>
  <g id="_Слой_3" data-name="Слой 3">
    <path class="cls-1" d="M0,8.29C0,3.72,3.69,0,8.26,0c3.18,0,4.59,1.33,6.08,3.69,1.49-2.36,2.9-3.69,6.08-3.69,4.57,0,8.26,3.72,8.26,8.29,0,4.28-2.44,8.4-5.24,11.82-2.65,3.24-5.78,6.02-7.92,7.93-.14,.12-.27,.24-.4,.36-.44,.4-1.11,.4-1.55,0-.13-.12-.26-.24-.4-.36-2.14-1.9-5.27-4.69-7.92-7.93C2.44,16.69,0,12.57,0,8.29Z"/>
  </g>
</svg>