<?xml version="1.0" encoding="UTF-8"?>
<svg id="_Слой_2" data-name="Слой 2" xmlns="http://www.w3.org/2000/svg" viewBox="0 0 176.6 63.95">
  <defs>
    <style>
      .cls-1 {
        fill: #8bc53f;
      }

      .cls-2 {
        fill: #1b763b;
      }

      .cls-3 {
        fill: #52443b;
      }

      .cls-4 {
        fill: #81ba41;
      }

      .cls-5 {
        fill: #f6921e;
      }
    </style>
  </defs>
  <g id="_Слой_4" data-name="Слой 4">
    <g>
      <path class="cls-2" d="M10.32,44.7c10.57,10.16,26.12,13.72,30.11,14.36C37.7,40.2,19.53,26.92,.21,30.88c-2.6,22.47,19.82,39.26,40.5,30.89,0-.02,0-.03,0-.05-21.94-2.68-30.39-17.02-30.39-17.02Z"/>
      <path class="cls-1" d="M59.02,30.88c-2.2-.45-4.48-.69-6.81-.69-7.85,0-15.06,2.68-20.79,7.17,2.9,2.67,5.36,5.8,7.27,9.29,4.51-2.56,11.51-6.87,13.97-10.39-3.08,5.62-6.74,8.19-12.93,12.46,1.73,3.7,2.85,7.75,3.23,12.01,9.64-4.88,16.26-14.88,16.26-26.42,0-1.16-.07-2.31-.2-3.44Z"/>
    </g>
    <path class="cls-5" d="M21.56,19.1l2.14,12.56c1.56,.7,3.05,1.51,4.48,2.44l-3.97-15.56c2.99-1.38,4.82-5.84,3.82-10.54C26.93,2.8,22.77-.73,18.74,.13c-4.03,.86-6.39,5.77-5.29,10.97,1,4.7,4.48,8.02,8.11,8Z"/>
    <path class="cls-5" d="M35.48,19.36l-3.7,14.49c1.4-.89,2.86-1.67,4.36-2.32l1.98-11.61c3.29-.05,5.77-3.59,6.77-8.29,.33-1.54,1.08-5.69,.54-8.29-.04-.21-.22-.36-.44-.36-.21,0-.39,.15-.44,.35l-2.04,9.6c-.04,.21-.17,.39-.35,.51-.18,.12-.4,.16-.61,.11h-.05c-.43-.1-.71-.53-.62-.96l2.03-9.55c.1-.47-.2-.94-.67-1.04h-.02c-.23-.05-.46,0-.66,.12-.19,.13-.33,.32-.38,.55l-2.03,9.55c-.04,.21-.17,.39-.35,.51-.18,.12-.4,.16-.61,.11h-.05c-.43-.1-.71-.53-.62-.96l2.03-9.55c.05-.23,0-.46-.12-.66-.13-.19-.33-.33-.55-.38-.48-.1-.95,.2-1.06,.69l-2.03,9.53c-.04,.21-.17,.39-.35,.51-.18,.12-.4,.16-.61,.11h-.05c-.43-.1-.71-.53-.62-.96l2.05-9.64c.04-.2-.06-.4-.24-.49-.18-.09-.41-.04-.54,.11-1.71,2.02-2.78,6.08-3.15,7.81-1,4.7-.18,8.94,3.15,10.39Z"/>
    <g>
      <path class="cls-3" d="M81.61,52.83h-8.41c.04,.96,.29,1.71,.74,2.24,.45,.53,1.19,.8,2.22,.8,.52,0,1.11-.07,1.79-.22,.68-.15,1.46-.39,2.34-.72,.71,.73,1.15,1.73,1.32,2.98-1.73,1.23-3.84,1.84-6.34,1.84-1.36,0-2.5-.22-3.41-.65-.92-.43-1.66-1.04-2.23-1.81-.57-.78-.98-1.69-1.21-2.75-.24-1.06-.36-2.21-.36-3.46s.15-2.32,.44-3.35c.29-1.02,.73-1.91,1.33-2.67,.59-.75,1.35-1.35,2.26-1.78,.92-.43,1.99-.65,3.22-.65,1.04,0,1.97,.17,2.8,.52,.83,.35,1.54,.82,2.12,1.42,.58,.6,1.03,1.33,1.34,2.17,.31,.84,.47,1.76,.47,2.75,0,1.32-.14,2.43-.42,3.33Zm-8.44-3.49h4.24v-.36c0-.8-.18-1.46-.53-1.97-.35-.52-.88-.78-1.59-.78s-1.19,.24-1.52,.73c-.33,.49-.53,1.28-.59,2.38Z"/>
      <path class="cls-3" d="M93.16,50.28v-.42c0-1.21-.13-2.09-.39-2.64-.26-.55-.74-.82-1.46-.82-.76,0-1.28,.37-1.58,1.12-.3,.74-.45,1.98-.45,3.7,0,.86,.06,1.58,.18,2.17,.12,.58,.29,1.05,.52,1.41,.23,.36,.51,.61,.86,.78,.34,.16,.75,.24,1.23,.24s1.05-.11,1.65-.32c.6-.22,1.25-.56,1.94-1.03,.19,.11,.39,.26,.6,.47,.2,.21,.39,.44,.57,.7,.17,.26,.32,.53,.45,.82,.13,.29,.23,.57,.29,.82-.71,.76-1.64,1.36-2.78,1.81-1.14,.45-2.31,.68-3.49,.68-2.31,0-4.08-.75-5.3-2.26-1.23-1.51-1.84-3.65-1.84-6.44,0-1.42,.2-2.66,.6-3.72,.4-1.06,.93-1.93,1.58-2.62,.66-.69,1.41-1.21,2.26-1.55,.85-.34,1.74-.52,2.67-.52s1.82,.13,2.6,.39c.79,.26,1.47,.63,2.04,1.1,.57,.47,1.01,1.04,1.33,1.7,.31,.66,.47,1.39,.47,2.18,0,.91-.26,1.54-.79,1.91-.53,.37-1.18,.55-1.96,.55-.65,0-1.24-.06-1.78-.19Z"/>
      <path class="cls-3" d="M111.85,44.55c1.55,1.55,2.33,3.77,2.33,6.66,0,1.29-.17,2.47-.5,3.53-.33,1.06-.82,1.96-1.46,2.7-.64,.74-1.42,1.32-2.34,1.71-.93,.4-1.99,.6-3.2,.6s-2.27-.21-3.19-.61c-.92-.41-1.69-.99-2.33-1.73-.64-.74-1.12-1.64-1.44-2.7-.32-1.06-.49-2.22-.49-3.49s.16-2.46,.49-3.51c.32-1.05,.8-1.95,1.42-2.7,.62-.75,1.4-1.34,2.33-1.75,.93-.41,1.99-.61,3.2-.61,2.13,0,3.86,.64,5.18,1.91Zm-5.16,1.88c-.48,0-.86,.11-1.16,.34-.29,.23-.53,.53-.7,.92-.17,.39-.29,.84-.36,1.34-.07,.51-.1,1.05-.1,1.63,0,.91,.03,1.69,.08,2.34,.05,.66,.16,1.21,.33,1.65,.16,.44,.39,.77,.68,.99,.29,.22,.68,.32,1.16,.32,.96,0,1.58-.41,1.89-1.25,.3-.83,.46-2.01,.46-3.54s-.15-2.73-.46-3.54c-.3-.81-.91-1.21-1.82-1.21Z"/>
      <path class="cls-4" d="M117.96,59.27v-12.65l-2.78,.03c-.13-.53-.19-1.12-.19-1.76s.06-1.24,.19-1.8l2.52,.03c-.11-.8-.16-1.52-.16-2.17,0-1.62,.52-2.96,1.57-4.03,1.05-1.07,2.41-1.6,4.09-1.6s3.33,.3,4.95,.91c.02,.56-.08,1.17-.29,1.83-.22,.66-.49,1.16-.81,1.5-1.01-.3-1.84-.45-2.49-.45-1.44,0-2.17,.74-2.17,2.23,0,.63,.04,1.23,.13,1.81l4.24-.06c.13,.56,.19,1.15,.19,1.8s-.06,1.23-.19,1.76l-3.88-.06v12.68c-.73,.13-1.54,.19-2.43,.19s-1.71-.06-2.49-.19Z"/>
      <path class="cls-4" d="M140.09,44.55c1.55,1.55,2.33,3.77,2.33,6.66,0,1.29-.17,2.47-.5,3.53-.33,1.06-.82,1.96-1.46,2.7-.64,.74-1.42,1.32-2.35,1.71-.93,.4-1.99,.6-3.2,.6s-2.27-.21-3.19-.61c-.92-.41-1.69-.99-2.33-1.73-.64-.74-1.12-1.64-1.44-2.7-.32-1.06-.49-2.22-.49-3.49s.16-2.46,.49-3.51c.32-1.05,.8-1.95,1.42-2.7,.62-.75,1.4-1.34,2.33-1.75,.93-.41,1.99-.61,3.2-.61,2.13,0,3.86,.64,5.17,1.91Zm-5.16,1.88c-.48,0-.86,.11-1.16,.34-.29,.23-.53,.53-.7,.92-.17,.39-.29,.84-.36,1.34-.07,.51-.1,1.05-.1,1.63,0,.91,.03,1.69,.08,2.34,.05,.66,.16,1.21,.33,1.65,.16,.44,.39,.77,.68,.99,.29,.22,.68,.32,1.16,.32,.96,0,1.58-.41,1.89-1.25,.3-.83,.46-2.01,.46-3.54s-.15-2.73-.46-3.54c-.3-.81-.91-1.21-1.82-1.21Z"/>
      <path class="cls-4" d="M156.97,44.55c1.55,1.55,2.33,3.77,2.33,6.66,0,1.29-.17,2.47-.5,3.53-.33,1.06-.82,1.96-1.46,2.7-.64,.74-1.42,1.32-2.35,1.71-.93,.4-1.99,.6-3.2,.6s-2.27-.21-3.19-.61c-.92-.41-1.69-.99-2.33-1.73-.64-.74-1.12-1.64-1.44-2.7-.32-1.06-.49-2.22-.49-3.49s.16-2.46,.49-3.51c.32-1.05,.8-1.95,1.42-2.7,.62-.75,1.4-1.34,2.33-1.75,.93-.41,1.99-.61,3.2-.61,2.13,0,3.86,.64,5.17,1.91Zm-5.16,1.88c-.48,0-.86,.11-1.16,.34-.29,.23-.53,.53-.7,.92-.17,.39-.29,.84-.36,1.34-.07,.51-.1,1.05-.1,1.63,0,.91,.03,1.69,.08,2.34,.05,.66,.16,1.21,.33,1.65,.16,.44,.39,.77,.68,.99,.29,.22,.68,.32,1.16,.32,.96,0,1.58-.41,1.89-1.25,.3-.83,.46-2.01,.46-3.54s-.15-2.73-.46-3.54c-.3-.81-.91-1.21-1.82-1.21Z"/>
      <path class="cls-4" d="M167.77,42.81c1.04,0,2.04,.24,3.01,.71v-7.83l.19-.23h1.97c1.03,0,1.75,.23,2.15,.68,.4,.45,.6,1.24,.6,2.36v16.11c0,1.14,.3,1.92,.91,2.33-.11,.45-.31,.94-.61,1.46-.3,.52-.61,.89-.94,1.13-1.57-.04-2.73-.65-3.46-1.81-1.29,1.36-2.85,2.04-4.66,2.04s-3.2-.75-4.17-2.26c-.97-1.51-1.46-3.58-1.46-6.21,0-1.29,.17-2.46,.5-3.51,.33-1.05,.79-1.93,1.37-2.67,.58-.73,1.27-1.3,2.05-1.7,.79-.4,1.63-.6,2.54-.6Zm.63,12.87c.89,0,1.68-.42,2.38-1.26v-7.08c-.89-.52-1.6-.78-2.12-.78-1.48,0-2.22,1.62-2.22,4.85,0,2.85,.65,4.27,1.96,4.27Z"/>
    </g>
  </g>
</svg>