<?xml version="1.0" encoding="UTF-8"?>
<svg id="_Слой_2" data-name="Слой 2" xmlns="http://www.w3.org/2000/svg" viewBox="0 0 150.48 49.53">
  <defs>
    <style>
      .cls-1 {
        fill: #fffbca;
        stroke: #f6921e;
        stroke-miterlimit: 10;
      }

      .cls-2 {
        fill: #52443b;
      }

      .cls-3 {
        fill: #f6921e;
      }
    </style>
  </defs>
  <g id="_Слой_1-2" data-name="Слой 1">
    <rect class="cls-1" x=".5" y="1.5" width="149.48" height="33.97" rx="13.86" ry="13.86"/>
    <g>
      <path class="cls-2" d="M16.07,12.13h2.4l1.45,4.76,.5,1.83h.07l.49-1.83,1.46-4.76h2.4v12.19h-1.92v-4.92c0-1.28,.21-3.82,.32-5h-.06l-.81,2.83-1.34,3.85h-1.23l-1.33-3.85-.79-2.83h-.05c.13,1.18,.32,3.71,.32,5v4.92h-1.88V12.13Z"/>
      <path class="cls-2" d="M26.06,19.76c0-3.06,2.18-4.81,4.6-4.81s4.6,1.75,4.6,4.81-2.18,4.79-4.6,4.79-4.6-1.75-4.6-4.79Zm6.99,0c0-1.84-.9-3.06-2.39-3.06s-2.39,1.21-2.39,3.06,.9,3.03,2.39,3.03,2.39-1.2,2.39-3.03Z"/>
      <path class="cls-2" d="M36.87,15.17h2.08v3.16c0,.95-.11,2.17-.19,3.31h.07c.32-.56,.82-1.39,1.13-1.94l2.91-4.53h1.96v9.16h-2.08v-3.16c0-.95,.11-2.16,.2-3.32h-.08c-.31,.56-.82,1.41-1.13,1.94l-2.92,4.54h-1.96V15.17Zm1.18-4.38l1.71-.09c.04,1.05,.35,1.76,1.37,1.76s1.33-.71,1.37-1.76l1.71,.09c-.06,1.65-.96,2.87-3.07,2.87s-3.01-1.22-3.07-2.87Z"/>
      <path class="cls-2" d="M57.2,15.17h1.76l.17,1.05h.06c.79-.74,1.9-1.27,2.94-1.27,2.37,0,3.73,1.83,3.73,4.67,0,3.12-1.94,4.94-4.07,4.94-.83,0-1.75-.39-2.48-1.09h-.05l.1,1.61v2.88h-2.16V15.17Zm6.45,4.46c0-1.82-.64-2.89-2.12-2.89-.69,0-1.43,.33-2.17,1.1v4.12c.67,.61,1.44,.83,1.99,.83,1.3,0,2.3-1.07,2.3-3.14Z"/>
      <path class="cls-2" d="M67,19.73c0-2.99,2.27-4.79,4.72-4.79,2.73,0,4.25,1.81,4.25,4.35,0,.43-.06,.85-.1,1.08h-7.33v-1.52h5.94l-.41,.48c0-1.81-.85-2.73-2.28-2.73-1.51,0-2.68,1.09-2.68,3.13s1.28,3.15,3.19,3.15c.96,0,1.75-.28,2.57-.75l.74,1.34c-.98,.64-2.24,1.08-3.59,1.08-2.8,0-5.01-1.77-5.01-4.81Z"/>
      <path class="cls-2" d="M77.59,15.17h2.17v7.44h3.5v-7.44h2.16v9.16h-7.82V15.17Zm7.15,9.16h-.64v-1.72h2.71v1.41l-.2,3.52h-1.86v-3.21Z"/>
      <path class="cls-2" d="M87.4,19.73c0-2.99,2.27-4.79,4.72-4.79,2.73,0,4.25,1.81,4.25,4.35,0,.43-.06,.85-.1,1.08h-7.33v-1.52h5.94l-.41,.48c0-1.81-.85-2.73-2.28-2.73-1.51,0-2.68,1.09-2.68,3.13s1.28,3.15,3.19,3.15c.96,0,1.75-.28,2.57-.75l.74,1.34c-.98,.64-2.24,1.08-3.59,1.08-2.8,0-5.01-1.77-5.01-4.81Z"/>
      <path class="cls-2" d="M97.99,15.17h8.12v9.16h-2.16v-7.45h-3.8v7.45h-2.16V15.17Z"/>
      <path class="cls-2" d="M111.16,16.87h-3.43v-1.71h9.03v1.71h-3.43v7.45h-2.17v-7.45Z"/>
    </g>
    <path class="cls-3" d="M132.54,20.57h-7v-2.55h7v-7.48h2.71v7.48h7v2.55h-7v7.48h-2.71v-7.48Z"/>
  </g>
</svg>