<svg width="24" height="24" viewBox="0 0 24 24" fill="none" xmlns="http://www.w3.org/2000/svg">
<path d="M13.7018 17.7018C13.5263 17.9006 13.2924 18 13 18C12.731 18 12.4971 17.9006 12.2982 17.7018C12.0994 17.5029 12 17.269 12 17C12 16.7076 12.0994 16.4737 12.2982 16.2982L17.193 11.4035C17.2515 11.345 17.2924 11.4327 17.3158 11.6667C17.3392 11.8889 17.3392 12.117 17.3158 12.3509C17.2924 12.5731 17.2515 12.655 17.193 12.5965L12.2982 7.70175C12.0994 7.51462 12 7.2807 12 7C12 6.7193 12.0994 6.48538 12.2982 6.29825C12.4971 6.09942 12.731 6 13 6C13.2924 6 13.5263 6.09942 13.7018 6.29825L18.5965 11.193C18.8187 11.4035 18.9298 11.6725 18.9298 12C18.9298 12.3158 18.8187 12.5848 18.5965 12.807L13.7018 17.7018ZM7.70175 17.7018C7.52632 17.9006 7.2924 18 7 18C6.73099 18 6.49708 17.9006 6.29825 17.7018C6.09942 17.5029 6 17.269 6 17C6 16.7076 6.09942 16.4737 6.29825 16.2982L11.193 11.4035C11.2515 11.345 11.2924 11.4327 11.3158 11.6667C11.3392 11.8889 11.3392 12.117 11.3158 12.3509C11.2924 12.5731 11.2515 12.655 11.193 12.5965L6.29825 7.70175C6.09942 7.51462 6 7.2807 6 7C6 6.7193 6.09942 6.48538 6.29825 6.29825C6.49708 6.09942 6.73099 6 7 6C7.2924 6 7.52632 6.09942 7.70175 6.29825L12.5965 11.193C12.8187 11.4035 12.9298 11.6725 12.9298 12C12.9298 12.3158 12.8187 12.5848 12.5965 12.807L7.70175 17.7018Z" fill="#333333"/>
</svg>
