<?xml version="1.0" encoding="UTF-8"?>
<svg id="_Слой_2" data-name="Слой 2" xmlns="http://www.w3.org/2000/svg" viewBox="0 0 180 56.11">
  <defs>
    <style>
      .cls-1 {
        fill: #fffbca;
        stroke: #f6921e;
        stroke-miterlimit: 10;
      }

      .cls-2 {
        fill: #52443b;
      }

      .cls-3 {
        fill: #f6921e;
      }
    </style>
  </defs>
  <g id="_Слой_2-2" data-name="Слой 2">
    <rect class="cls-1" x=".5" y=".5" width="179" height="40.68" rx="18.41" ry="18.41"/>
    <g>
      <path class="cls-2" d="M21.07,13.99h2.7l1.63,5.35,.56,2.06h.08l.55-2.06,1.64-5.35h2.7v13.73h-2.16v-5.54c0-1.44,.24-4.3,.36-5.63h-.06l-.92,3.19-1.51,4.34h-1.38l-1.5-4.34-.89-3.19h-.06c.14,1.33,.36,4.18,.36,5.63v5.54h-2.12V13.99Z"/>
      <path class="cls-2" d="M32.32,22.57c0-3.45,2.46-5.42,5.18-5.42s5.18,1.98,5.18,5.42-2.46,5.39-5.18,5.39-5.18-1.98-5.18-5.39Zm7.87,0c0-2.07-1.01-3.44-2.69-3.44s-2.69,1.37-2.69,3.44,1.01,3.41,2.69,3.41,2.69-1.35,2.69-3.41Z"/>
      <path class="cls-2" d="M44.5,17.4h2.34v3.56c0,1.07-.13,2.44-.21,3.73h.08c.35-.63,.93-1.56,1.27-2.18l3.28-5.1h2.21v10.31h-2.34v-3.56c0-1.07,.13-2.43,.22-3.74h-.08c-.35,.63-.92,1.58-1.27,2.18l-3.29,5.11h-2.21v-10.31Zm1.33-4.93l1.92-.1c.04,1.18,.4,1.98,1.54,1.98s1.49-.8,1.54-1.98l1.92,.1c-.07,1.86-1.08,3.23-3.46,3.23s-3.39-1.37-3.46-3.23Z"/>
      <path class="cls-2" d="M67.39,17.4h1.98l.19,1.18h.07c.89-.83,2.13-1.43,3.31-1.43,2.67,0,4.2,2.06,4.2,5.25,0,3.52-2.18,5.56-4.58,5.56-.93,0-1.97-.44-2.8-1.22h-.06l.11,1.81v3.24h-2.43v-14.39Zm7.26,5.02c0-2.05-.72-3.26-2.39-3.26-.78,0-1.61,.37-2.44,1.23v4.63c.76,.68,1.62,.93,2.24,.93,1.47,0,2.6-1.2,2.6-3.54Z"/>
      <path class="cls-2" d="M78.44,22.55c0-3.36,2.55-5.39,5.31-5.39,3.08,0,4.78,2.04,4.78,4.9,0,.48-.07,.95-.11,1.22h-8.26v-1.71h6.69l-.46,.54c0-2.04-.96-3.07-2.57-3.07-1.7,0-3.02,1.23-3.02,3.53s1.44,3.54,3.59,3.54c1.08,0,1.97-.32,2.89-.84l.83,1.5c-1.1,.72-2.53,1.22-4.04,1.22-3.16,0-5.64-1.99-5.64-5.42Z"/>
      <path class="cls-2" d="M90.36,17.4h2.44v8.38h3.94v-8.38h2.43v10.31h-8.81v-10.31Zm8.05,10.31h-.72v-1.94h3.05v1.58l-.23,3.96h-2.1v-3.61Z"/>
      <path class="cls-2" d="M101.41,22.55c0-3.36,2.55-5.39,5.32-5.39,3.08,0,4.78,2.04,4.78,4.9,0,.48-.06,.95-.11,1.22h-8.26v-1.71h6.69l-.46,.54c0-2.04-.96-3.07-2.57-3.07-1.71,0-3.02,1.23-3.02,3.53s1.44,3.54,3.59,3.54c1.08,0,1.97-.32,2.89-.84l.83,1.5c-1.1,.72-2.53,1.22-4.04,1.22-3.16,0-5.64-1.99-5.64-5.42Z"/>
      <path class="cls-2" d="M113.34,17.4h9.14v10.31h-2.43v-8.39h-4.28v8.39h-2.43v-10.31Z"/>
      <path class="cls-2" d="M128.17,19.33h-3.86v-1.92h10.17v1.92h-3.86v8.39h-2.44v-8.39Z"/>
    </g>
    <path class="cls-3" d="M152.25,23.48h-7.88v-2.87h7.88V12.18h3.05v8.43h7.88v2.87h-7.88v8.43h-3.05v-8.43Z"/>
  </g>
</svg>