<?xml version="1.0" encoding="UTF-8"?>
<svg id="_Слой_2" data-name="Слой 2" xmlns="http://www.w3.org/2000/svg" viewBox="0 0 28.67 29">
  <defs>
    <style>
      .cls-1 {
        fill: #1f8738;
        fill-rule: evenodd;
      }
    </style>
  </defs>
  <g id="_Слой_3" data-name="Слой 3">
    <path class="cls-1" d="M2.18,14.5C2.18,8.32,7,2.18,14.5,2.18c6.06,0,9.05,4.48,10.33,6.87h-3.79c-.6,0-1.09,.49-1.09,1.09s.49,1.09,1.09,1.09h6.54c.6,0,1.09-.49,1.09-1.09V3.6c0-.6-.49-1.09-1.09-1.09s-1.09,.49-1.09,1.09v3.95c-1.54-2.71-5.09-7.55-11.99-7.55C5.64,0,0,7.27,0,14.5s5.64,14.5,14.5,14.5c4.24,0,7.77-1.68,10.28-4.23,1.35-1.37,2.4-2.99,3.11-4.73,.23-.56-.04-1.19-.59-1.42-.56-.23-1.19,.04-1.42,.59-.61,1.49-1.51,2.87-2.65,4.03-2.12,2.16-5.09,3.58-8.72,3.58-7.5,0-12.32-6.14-12.32-12.32Z"/>
  </g>
</svg>