<?xml version="1.0" encoding="UTF-8"?>
<svg id="_Слой_2" data-name="Слой 2" xmlns="http://www.w3.org/2000/svg" viewBox="0 0 28.63 28.63">
  <defs>
    <style>
      .cls-1 {
        fill: #8d8d8e;
        fill-rule: evenodd;
      }
    </style>
  </defs>
  <g id="_Слой_2-2" data-name="Слой 2">
    <path class="cls-1" d="M20.83,11.71c0,5.03-4.08,9.11-9.11,9.11S2.6,16.75,2.6,11.71,6.68,2.6,11.71,2.6s9.11,4.08,9.11,9.11Zm-1.8,9.15c-2,1.6-4.55,2.56-7.31,2.56C5.24,23.43,0,18.18,0,11.71S5.24,0,11.71,0s11.71,5.24,11.71,11.71c0,2.77-.96,5.31-2.56,7.31l7.39,7.39c.51,.51,.51,1.33,0,1.84-.51,.51-1.33,.51-1.84,0l-7.39-7.39Z"/>
  </g>
</svg>